<svg width="52" height="52" viewBox="0 0 52 52" fill="none" xmlns="http://www.w3.org/2000/svg">
<rect width="52" height="52" rx="26" fill="white"/>
<path d="M33 21H30V20C30 18.9391 29.5786 17.9217 28.8284 17.1716C28.0783 16.4214 27.0609 16 26 16C24.9391 16 23.9217 16.4214 23.1716 17.1716C22.4214 17.9217 22 18.9391 22 20V21H19C18.7348 21 18.4804 21.1054 18.2929 21.2929C18.1054 21.4804 18 21.7348 18 22V33C18 33.7956 18.3161 34.5587 18.8787 35.1213C19.4413 35.6839 20.2044 36 21 36H31C31.7956 36 32.5587 35.6839 33.1213 35.1213C33.6839 34.5587 34 33.7956 34 33V22C34 21.7348 33.8946 21.4804 33.7071 21.2929C33.5196 21.1054 33.2652 21 33 21ZM24 20C24 19.4696 24.2107 18.9609 24.5858 18.5858C24.9609 18.2107 25.4696 18 26 18C26.5304 18 27.0391 18.2107 27.4142 18.5858C27.7893 18.9609 28 19.4696 28 20V21H24V20ZM32 33C32 33.2652 31.8946 33.5196 31.7071 33.7071C31.5196 33.8946 31.2652 34 31 34H21C20.7348 34 20.4804 33.8946 20.2929 33.7071C20.1054 33.5196 20 33.2652 20 33V23H22V24C22 24.2652 22.1054 24.5196 22.2929 24.7071C22.4804 24.8946 22.7348 25 23 25C23.2652 25 23.5196 24.8946 23.7071 24.7071C23.8946 24.5196 24 24.2652 24 24V23H28V24C28 24.2652 28.1054 24.5196 28.2929 24.7071C28.4804 24.8946 28.7348 25 29 25C29.2652 25 29.5196 24.8946 29.7071 24.7071C29.8946 24.5196 30 24.2652 30 24V23H32V33Z" fill="#081C00"/>
</svg>
