<svg width="247" height="52" viewBox="0 0 247 52" fill="none" xmlns="http://www.w3.org/2000/svg">
<rect width="247" height="52" rx="26" fill="white"/>
<path d="M32.9302 25.2065C32.9302 24.3911 33.084 23.6318 33.3916 22.9287C33.6992 22.2207 34.1436 21.6079 34.7246 21.0903C35.3105 20.5679 36.0234 20.1577 36.8633 19.8599C37.708 19.562 38.6626 19.4131 39.7271 19.4131C40.6597 19.4131 41.5142 19.5083 42.2905 19.6987C43.0718 19.8843 43.7969 20.1699 44.4658 20.5557L43.3965 22.3135C43.1963 22.1816 42.9644 22.0645 42.7007 21.9619C42.4419 21.8594 42.1636 21.7739 41.8657 21.7056C41.5728 21.6323 41.2676 21.5762 40.9502 21.5371C40.6377 21.498 40.3276 21.4785 40.02 21.4785C39.2778 21.4785 38.6162 21.5713 38.0352 21.7568C37.4541 21.9375 36.9634 22.1938 36.563 22.5259C36.1675 22.853 35.8647 23.2461 35.6548 23.7051C35.4497 24.1592 35.3472 24.6597 35.3472 25.2065C35.3472 25.7729 35.4546 26.293 35.6694 26.7666C35.8843 27.2402 36.1943 27.6504 36.5996 27.9971C37.0098 28.3389 37.5078 28.6074 38.0938 28.8027C38.6846 28.9932 39.3511 29.0884 40.0933 29.0884C40.4302 29.0884 40.7646 29.064 41.0967 29.0151C41.4287 28.9663 41.7485 28.9004 42.0562 28.8174C42.3687 28.7295 42.6689 28.627 42.957 28.5098C43.2451 28.3877 43.5137 28.2559 43.7627 28.1143L44.832 29.8721C44.207 30.2725 43.4844 30.5874 42.6641 30.8169C41.8438 31.0415 40.9722 31.1538 40.0493 31.1538C38.8726 31.1538 37.8398 31.0024 36.9512 30.6997C36.0625 30.3921 35.3203 29.9722 34.7246 29.4399C34.1289 28.9028 33.6797 28.2729 33.377 27.5503C33.0791 26.8228 32.9302 26.0415 32.9302 25.2065ZM46.7217 25.2432C46.7217 24.3789 46.8804 23.5879 47.1978 22.8701C47.5151 22.1523 47.9595 21.5371 48.5308 21.0244C49.1069 20.5068 49.7954 20.1064 50.5962 19.8232C51.4019 19.54 52.293 19.3984 53.2695 19.3984C54.2412 19.3984 55.1299 19.54 55.9355 19.8232C56.7412 20.1064 57.4297 20.5068 58.001 21.0244C58.5771 21.5371 59.0239 22.1523 59.3413 22.8701C59.6587 23.5879 59.8174 24.3789 59.8174 25.2432C59.8174 26.1123 59.6587 26.9106 59.3413 27.6382C59.0239 28.3608 58.5771 28.9834 58.001 29.5059C57.4297 30.0283 56.7412 30.436 55.9355 30.729C55.1299 31.0171 54.2412 31.1611 53.2695 31.1611C52.293 31.1611 51.4019 31.0171 50.5962 30.729C49.7954 30.436 49.1069 30.0283 48.5308 29.5059C47.9595 28.9834 47.5151 28.3608 47.1978 27.6382C46.8804 26.9106 46.7217 26.1123 46.7217 25.2432ZM49.0435 25.2432C49.0435 25.834 49.1484 26.3662 49.3584 26.8398C49.5732 27.3135 49.8687 27.7188 50.2446 28.0557C50.6255 28.3877 51.0723 28.644 51.585 28.8247C52.1025 29.0054 52.6641 29.0957 53.2695 29.0957C53.875 29.0957 54.4341 29.0054 54.9468 28.8247C55.4644 28.644 55.9111 28.3877 56.2871 28.0557C56.6631 27.7188 56.9585 27.3135 57.1733 26.8398C57.3882 26.3662 57.4956 25.834 57.4956 25.2432C57.4956 24.6523 57.3882 24.1226 57.1733 23.6538C56.9585 23.1851 56.6631 22.7896 56.2871 22.4673C55.9111 22.1401 55.4644 21.8911 54.9468 21.7202C54.4341 21.5493 53.875 21.4639 53.2695 21.4639C52.6641 21.4639 52.1025 21.5493 51.585 21.7202C51.0723 21.8911 50.6255 22.1401 50.2446 22.4673C49.8687 22.7896 49.5732 23.1851 49.3584 23.6538C49.1484 24.1226 49.0435 24.6523 49.0435 25.2432ZM62.3809 19.5522H64.7026L71.8364 23.2876V19.5522H74.1582V31H71.8364V25.7485L64.7026 22.0352V31H62.3809V19.5522ZM77.3809 19.5522H79.7026L86.8364 23.2876V19.5522H89.1582V31H86.8364V25.7485L79.7026 22.0352V31H77.3809V19.5522ZM92.3955 19.5522H102.144V21.5884H94.7173V23.8735H101.294V25.7852H94.7173V28.9712H102.298V31H92.3955V19.5522ZM104.18 25.2065C104.18 24.3911 104.334 23.6318 104.642 22.9287C104.949 22.2207 105.394 21.6079 105.975 21.0903C106.561 20.5679 107.273 20.1577 108.113 19.8599C108.958 19.562 109.913 19.4131 110.977 19.4131C111.91 19.4131 112.764 19.5083 113.541 19.6987C114.322 19.8843 115.047 20.1699 115.716 20.5557L114.646 22.3135C114.446 22.1816 114.214 22.0645 113.951 21.9619C113.692 21.8594 113.414 21.7739 113.116 21.7056C112.823 21.6323 112.518 21.5762 112.2 21.5371C111.888 21.498 111.578 21.4785 111.27 21.4785C110.528 21.4785 109.866 21.5713 109.285 21.7568C108.704 21.9375 108.213 22.1938 107.813 22.5259C107.417 22.853 107.115 23.2461 106.905 23.7051C106.7 24.1592 106.597 24.6597 106.597 25.2065C106.597 25.7729 106.705 26.293 106.919 26.7666C107.134 27.2402 107.444 27.6504 107.85 27.9971C108.26 28.3389 108.758 28.6074 109.344 28.8027C109.935 28.9932 110.601 29.0884 111.343 29.0884C111.68 29.0884 112.015 29.064 112.347 29.0151C112.679 28.9663 112.999 28.9004 113.306 28.8174C113.619 28.7295 113.919 28.627 114.207 28.5098C114.495 28.3877 114.764 28.2559 115.013 28.1143L116.082 29.8721C115.457 30.2725 114.734 30.5874 113.914 30.8169C113.094 31.0415 112.222 31.1538 111.299 31.1538C110.123 31.1538 109.09 31.0024 108.201 30.6997C107.312 30.3921 106.57 29.9722 105.975 29.4399C105.379 28.9028 104.93 28.2729 104.627 27.5503C104.329 26.8228 104.18 26.0415 104.18 25.2065ZM122.095 21.5884H117.869V19.5522H128.643V21.5884H124.417V31H122.095V21.5884ZM134.627 19.5522H137.161L140.267 26.9424L140.984 28.7295L141.548 26.9424L142.691 24.2471L140.633 19.5522H143.021L143.863 21.7861L144.646 19.5522H147.034L144.976 24.2471L146.141 27.001L146.844 28.7295L147.386 26.9717L150.506 19.5522H153.04L147.986 31H145.687L144.668 28.7295L143.841 26.5249L143.013 28.7295L141.98 31H139.681L134.627 19.5522ZM158.716 19.5522H161.177L166.714 31H164.275L163.36 29.0737H156.673L155.787 31H153.34L158.716 19.5522ZM162.444 27.1621L159.969 21.9619L157.559 27.1621H162.444ZM168.494 19.5522H170.816V28.9639H177.474V31H168.494V19.5522ZM179.729 19.5522H182.051V28.9639H188.709V31H179.729V19.5522ZM190.965 19.5522H200.713V21.5884H193.287V23.8735H199.864V25.7852H193.287V28.9712H200.867V31H190.965V19.5522ZM206.895 21.5884H202.669V19.5522H213.443V21.5884H209.217V31H206.895V21.5884Z" fill="#081C00"/>
</svg>
