<svg width="52" height="52" viewBox="0 0 52 52" fill="none" xmlns="http://www.w3.org/2000/svg">
<rect width="52" height="52" rx="26" fill="white"/>
<path d="M35.71 34.2899L32 30.6099C33.4401 28.8143 34.1375 26.5352 33.9488 24.2412C33.7601 21.9472 32.6997 19.8127 30.9855 18.2765C29.2714 16.7404 27.0338 15.9194 24.7329 15.9824C22.432 16.0453 20.2427 16.9875 18.6151 18.615C16.9876 20.2426 16.0454 22.4319 15.9825 24.7328C15.9195 27.0337 16.7405 29.2713 18.2766 30.9854C19.8128 32.6996 21.9473 33.76 24.2413 33.9487C26.5353 34.1374 28.8144 33.44 30.61 31.9999L34.29 35.6799C34.383 35.7736 34.4936 35.848 34.6154 35.8988C34.7373 35.9496 34.868 35.9757 35 35.9757C35.132 35.9757 35.2627 35.9496 35.3846 35.8988C35.5064 35.848 35.617 35.7736 35.71 35.6799C35.8902 35.4934 35.991 35.2442 35.991 34.9849C35.991 34.7256 35.8902 34.4764 35.71 34.2899ZM25 31.9999C23.6155 31.9999 22.2621 31.5894 21.111 30.8202C19.9599 30.051 19.0627 28.9578 18.5328 27.6787C18.003 26.3996 17.8644 24.9921 18.1345 23.6343C18.4046 22.2764 19.0713 21.0291 20.0502 20.0502C21.0292 19.0712 22.2765 18.4045 23.6344 18.1344C24.9922 17.8643 26.3997 18.0029 27.6788 18.5327C28.9579 19.0626 30.0511 19.9598 30.8203 21.1109C31.5895 22.2621 32 23.6154 32 24.9999C32 26.8564 31.2625 28.6369 29.9497 29.9497C28.637 31.2624 26.8565 31.9999 25 31.9999Z" fill="#081C00"/>
</svg>
